<svg id="Capa_1" enable-background="new 0 0 490 490" height="512" viewBox="0 0 490 490" width="512" xmlns="http://www.w3.org/2000/svg"><g><circle cx="245" cy="245" fill="#78b0d9" r="245"/><path d="m378.845 362.632 11.982-.167c7.118-.093 13.839-3.263 18.44-8.694 4.6-5.432 6.62-12.582 5.542-19.618l19.769-3.03c1.956 12.759-1.707 25.726-10.05 35.575-6.113 7.217-14.289 12.231-23.301 14.462-.718 9.259-4.318 18.152-10.433 25.371-8.342 9.849-20.528 15.595-33.434 15.766l-.413-.003.279-10.111-.131-9.884c7.117-.094 13.837-3.263 18.438-8.695 4.559-5.382 6.584-12.454 5.57-19.429z" fill="#d66d22"/><path d="m96.545 155.401c-12.305 0-22.28-9.975-22.28-22.28 0-4.676-3.791-8.467-8.467-8.467-4.676 0-8.467 3.791-8.467 8.467 0 12.305-9.975 22.28-22.28 22.28-4.676 0-8.467 3.791-8.467 8.467 0 4.676 3.791 8.467 8.467 8.467 12.305 0 22.28 9.975 22.28 22.28 0 4.676 3.791 8.467 8.467 8.467 4.676 0 8.467-3.791 8.467-8.467 0-12.305 9.975-22.28 22.28-22.28 4.676 0 8.467-3.791 8.467-8.467-.001-4.676-3.791-8.467-8.467-8.467z" fill="#f6e06e"/><g><g><path d="m391.728 169.54c-2.359 0-4.27-1.912-4.27-4.27v-48.479l-68.341-37.557c-2.067-1.136-2.822-3.732-1.686-5.799s3.732-2.822 5.799-1.686l70.554 38.773c1.365.75 2.214 2.185 2.214 3.742v51.005c0 2.359-1.912 4.271-4.27 4.271z" fill="#f6e06e"/><path d="m407.861 205.186c0-8.911-7.224-30.871-16.135-30.871s-16.135 21.96-16.135 30.871 7.224 1.4 16.135 1.4 16.135 7.511 16.135-1.4z" fill="#f6e06e"/><path d="m386.389 205.186c0 .865.021 1.58.064 2.157-6.32 1.655-10.863 4.911-10.863-2.157 0-8.909 7.227-30.869 16.136-30.869-2.946 0-5.337 21.96-5.337 30.869z" fill="#dcbe34"/><circle cx="391.728" cy="165.27" fill="#fff" r="11.718"/><path d="m395.997 176.18c-1.324.523-2.765.806-4.27.806-6.475 0-11.717-5.247-11.717-11.717s5.242-11.717 11.717-11.717c1.505 0 2.947.283 4.27.806-4.361 1.703-7.446 5.946-7.446 10.911s3.085 9.208 7.446 10.911z" fill="#f1f1f1"/></g><path d="m399.892 99.994v-14.982c.03-4.412-2.213-8.838-6.715-11.217l-132.322-69.865c-4.954-2.62-10.404-3.93-15.855-3.93s-10.901 1.31-15.855 3.93l-132.322 69.865c-4.502 2.379-6.746 6.806-6.715 11.217v14.982h14.124l124.913 65.95c4.954 2.62 10.404 3.93 15.855 3.93s10.901-1.31 15.855-3.93l124.913-65.95z" fill="#593375"/><path d="m399.893 99.994v-14.984c.032-4.407-2.213-8.839-6.714-11.216l-63.982-33.78-10.116-5.342-58.229-30.74c-4.95-2.623-10.4-3.932-15.85-3.932v169.875c5.45 0 10.9-1.309 15.85-3.932l124.917-65.948h14.124z" fill="#8d71b3"/><path d="m393.179 111.138-132.32 69.859c-9.924 5.239-21.795 5.239-31.719 0l-132.32-69.859c-8.958-4.729-8.958-17.559 0-22.288l132.32-69.859c9.924-5.239 21.795-5.239 31.719 0l132.32 69.859c8.957 4.729 8.957 17.559 0 22.288z" fill="#704f85"/><g><path d="m354.385 211.855v189.179h-218.77v-190.539c0-60.689 49.407-109.388 110.2-109.388 127.189 0 98.554 35.801 103.517 77.509 3.284 10.517 5.053 21.689 5.053 33.239z" fill="#d66d22"/><path d="m206.773 378.027c2.015 8.325 3.414 15.986 4.235 23.007h-75.393v-190.539c0-11.123 1.66-21.858 4.745-31.97 5.31-44.82 55.349-77.421 104.647-77.421-48.031 0-76.468 119.188-38.234 276.923z" fill="#bb5a18"/><path d="m401.513 433.489c-42.45 35.29-96.99 56.51-156.51 56.51-43.32 0-84.01-11.24-119.31-30.97-13.21-7.38-25.66-15.94-37.21-25.55l52.56-72.84c5.71-7.91 14.87-12.6 24.62-12.6h158.66c9.75 0 18.91 4.69 24.62 12.6z" fill="#704f85"/><path d="m278.053 334.999v13.04l-8.77 23.73-24.29 58.46-24.29-58.46-8.77-23.73v-13.04z" fill="#dba290"/><path d="m331.063 245.785v24.419c0 44.483-33.733 81.063-77.01 85.587-2.968.314-5.996.471-9.049.471-47.535 0-86.07-38.523-86.07-86.058v-24.419c0-47.523 38.535-86.058 86.07-86.058 3.052 0 6.081.157 9.049.47 20.16 2.099 38.233 11.16 51.806 24.733 15.565 15.576 25.204 37.099 25.204 60.855z" fill="#dba290"/><path d="m331.063 245.785v24.419c0 44.483-33.733 81.063-77.01 85.587-43.288-4.524-77.021-41.105-77.021-85.587v-24.419c0-44.471 33.733-81.063 77.021-85.587 20.16 2.099 38.233 11.16 51.806 24.733 15.565 15.575 25.204 37.098 25.204 60.854z" fill="#edbba7"/><g><path d="m223.988 241.139c0-8.765-7.105-15.87-15.87-15.87s-15.87 7.105-15.87 15.87z" fill="#dba290"/><path d="m297.738 241.139c0-8.765-7.105-15.87-15.87-15.87s-15.87 7.105-15.87 15.87z" fill="#dba290"/><g fill="#444562"><path d="m208.118 231.769c5.109 0 9.25 4.141 9.25 9.25v14.5c0 5.109-4.141 9.25-9.25 9.25-5.109 0-9.25-4.141-9.25-9.25v-14.5c0-5.108 4.141-9.25 9.25-9.25z"/><path d="m281.868 231.769c5.109 0 9.25 4.141 9.25 9.25v14.5c0 5.109-4.141 9.25-9.25 9.25-5.109 0-9.25-4.141-9.25-9.25v-14.5c0-5.108 4.142-9.25 9.25-9.25z"/></g></g><g><path d="m245 200.614-13.271 82.754h13.271" fill="#dba290"/></g><path d="m342.405 241.779c-83.657 0-136.742-48.259-136.742-48.259 0 8.542-6.949 18.809-16.251 27.194-12.608 11.377-29.522 19.267-39.247 14.635l-2.413-25.734 20.112-42.637 30.174-7.613 55.884-14.104 69.179 27.351z" fill="#d66d22"/><path d="m198.038 159.365c-4.572 17.277-7.577 37.944-8.626 61.349-12.608 11.377-29.522 19.267-39.247 14.635l-2.413-25.734 21.475-59.926z" fill="#bb5a18"/><path d="m279.093 292.999c0 4.01-.7 7.87-1.98 11.44-1.29 3.65-3.19 7-5.57 9.95-1.05 1.31-2.2 2.54-3.43 3.66-6.08 5.63-14.2 9.05-23.12 9.05s-17.04-3.42-23.12-9.05c-1.23-1.12-2.38-2.35-3.43-3.66-2.38-2.95-4.28-6.3-5.57-9.95-1.28-3.57-1.98-7.43-1.98-11.44z" fill="#444562"/><path d="m268.113 318.049c-6.08 5.63-14.2 9.05-23.12 9.05s-17.04-3.42-23.12-9.05c6.07-5.62 14.2-9.05 23.12-9.05s17.05 3.43 23.12 9.05z" fill="#d54980"/><g fill="#dba290"><ellipse cx="294.917" cy="278.003" rx="15.986" ry="7.842"/><ellipse cx="195.081" cy="278.003" rx="15.986" ry="7.842"/></g><path d="m279.093 292.999c0 .31 0 .62-.02.93-9.74 5.16-21.47 8.17-34.08 8.17-12.62 0-24.34-3.01-34.08-8.17-.02-.31-.02-.62-.02-.93z" fill="#fff"/></g><path d="m348.713 117.149v61.66c0-16.45-15.97-31.07-40.71-40.37-17.46-6.54-39.3-10.44-63-10.44-14.56 0-28.42 1.47-41 4.13-36.88 7.78-62.71 25.75-62.71 46.68v-61.66c0-20.93 25.83-38.9 62.71-46.68 12.58-2.66 26.44-4.13 41-4.13 23.7 0 45.54 3.9 63 10.44 24.74 9.3 40.71 23.92 40.71 40.37z" fill="#593375"/><path d="m348.713 117.149v61.66c0-16.45-15.97-31.07-40.71-40.37-17.46-6.54-39.3-10.44-63-10.44-14.56 0-28.42 1.47-41 4.13v-61.66c12.58-2.66 26.44-4.13 41-4.13 23.7 0 45.54 3.9 63 10.44 24.74 9.3 40.71 23.92 40.71 40.37z" fill="#8d71b3"/><path d="m269.283 371.769-24.29 58.46-24.29-58.46z" fill="#d54980"/><path d="m211.933 348.039-33.024 13.431c-10.173 4.137-18.252 12.196-22.414 22.359l-30.802 75.2c-13.21-7.38-25.66-15.94-37.21-25.55l52.56-72.84c5.71-7.91 14.87-12.6 24.62-12.6z" fill="#593375"/></g><path d="m432.458 267.322-13.344-14.898 19.512-17.476-14.151-30.478 25.029-22.414-14.152-30.471 30.546-27.358 13.344 14.899-19.51 17.472 14.151 30.472-25.029 22.415 14.151 30.477z" fill="#f6e06e"/><path d="m80.947 275.69 2.989 11.605c1.77 6.895 6.435 12.679 12.798 15.869 6.364 3.19 13.789 3.466 20.372.758l7.608 18.497c-11.938 4.91-25.402 4.409-36.942-1.376-8.455-4.238-15.256-11.001-19.55-19.232-9.167 1.486-18.659.085-27.116-4.154-11.539-5.784-19.997-16.271-23.207-28.772l-.094-.402 9.892-2.114 9.574-2.459c1.77 6.894 6.435 12.677 12.798 15.867 6.306 3.161 13.656 3.461 20.195.831z" fill="#d54980"/></g></svg>